<svg xmlns="http://www.w3.org/2000/svg" width="500" height="500" style="width:100%;height:100%;transform:translate3d(0,0,0);content-visibility:visible" viewBox="0 0 500 500"><defs><clipPath id="f"><path d="M0 0h500v500H0z"/></clipPath><clipPath id="d"><path d="M0 0h500v500H0z"/></clipPath><filter id="a" width="100%" height="100%" x="0%" y="0%" filterUnits="objectBoundingBox"><feComponentTransfer in="SourceGraphic"><feFuncA tableValues="1.0 0.0" type="table"/></feComponentTransfer></filter><filter id="h" width="300%" height="300%" x="-100%" y="-100%"><feGaussianBlur result="filter_result_0" stdDeviation="52.5 52.5"/></filter><mask id="e" mask-type="alpha"><g filter="url(#a)"><path fill="#fff" d="M0 0h500v500H0z" opacity="0"/><use xmlns:ns1="http://www.w3.org/1999/xlink" ns1:href="#b"/></g></mask><mask id="g" mask-type="alpha"><use xmlns:ns2="http://www.w3.org/1999/xlink" ns2:href="#c"/></mask><g id="c" clip-path="url(#d)" style="display:block"><g fill-opacity="0" stroke="#121331" stroke-linecap="round" stroke-linejoin="round" stroke-width="10.278" style="display:block"><path stroke-opacity="0" d="M265.97 249.845a79.865 79.865 0 0 1-10.39-8.774l-68.426-68.559m248.88.012-68.431 68.551a79.658 79.658 0 0 1-6.729 6.022"/><path d="m187.142 172.512 103.702 103.903c11.449 11.47 30.04 11.472 41.49.002l103.688-103.87"/><path d="M185.365 170.357v167.334H438.02V170.378l-252.654-.021z"/></g><g mask="url(#e)" style="display:block"><path fill-opacity="0" stroke="#121331" stroke-linecap="round" stroke-linejoin="round" stroke-width="10.278" d="M313.373 241.793c21.181.332 42.248 7.524 58.384 21.572 0-.002 62.43 54.343 62.43 54.343m-243.73-1.054 61.595-53.407c16.898-14.653 39.171-21.8 61.321-21.454"/></g><path fill-opacity="0" stroke="#121331" stroke-linecap="round" stroke-linejoin="round" stroke-width="3.5" d="M-29.188-21.5h-21.85m21.85 11.284h-21.85M-29.147.932h-21.85m21.85 11.284h-21.85m21.795 11.149h-21.85" style="display:block" transform="matrix(3.7 0 0 3.7 250 250)"/></g><g id="b" style="display:block"><path fill="#121331" d="M237.437 190.26c-19.442-.476-24.1 10.34-10.394 24.137l60.45 60.854c13.707 13.797 35.677 13.52 49.03-.62l51.45-54.476c13.354-14.14 8.41-26.005-11.031-26.481l-139.505-3.415z"/><path fill-opacity="0" stroke="#08A88A" stroke-width="0" d="M237.437 190.26c-19.442-.476-24.1 10.34-10.394 24.137l60.45 60.854c13.707 13.797 35.677 13.52 49.03-.62l51.45-54.476c13.354-14.14 8.41-26.005-11.031-26.481l-139.505-3.415z"/></g></defs><g clip-path="url(#f)"><g mask="url(#g)" style="display:block"><g filter="url(#h)" transform="rotate(-94 262.075 8.435) scale(2.4)"><path fill="#4AE0EB" d="M0-250c137.975 0 250 112.025 250 250S137.975 250 0 250-250 137.975-250 0-137.975-250 0-250z" class="design"/><path fill="#CA5EED" d="M113.242-295.384c97.478 0 176.5 79.022 176.5 176.5s-79.022 176.5-176.5 176.5c-43.948 0-74.396-34.057-105.29-60.631-37.631-32.369-71.21-62.338-71.21-115.869 0-97.478 79.022-176.5 176.5-176.5z" class="design"/></g></g><path style="display:none"/></g></svg>